<svg width="200" height="200" viewBox="0 0 200 200" xmlns="http://www.w3.org/2000/svg">
  <circle cx="100" cy="100" r="95" fill="#F0F4F8" />
  
  <path d="M65 60 Q 40 15 25 45" stroke="#C4A484" stroke-width="12" fill="none" stroke-linecap="round" />
  <path d="M135 60 Q 160 15 175 45" stroke="#C4A484" stroke-width="12" fill="none" stroke-linecap="round" />
  
  <path d="M50 100 C 50 55, 150 55, 150 100 C 150 145, 130 165, 100 165 C 70 165, 50 145, 50 100" fill="#FFFFFF" />
  
  <circle cx="70" cy="135" r="10" fill="#FFB7CE" opacity="0.5" />
  <circle cx="130" cy="135" r="10" fill="#FFB7CE" opacity="0.5" />
  
  <circle cx="80" cy="115" r="7" fill="#333" />
  <circle cx="120" cy="115" r="7" fill="#333" />
  <circle cx="82" cy="112" r="2.5" fill="#FFF" />
  <circle cx="122" cy="112" r="2.5" fill="#FFF" />
  
  <path d="M92 135 Q 100 142 108 135" stroke="#333" stroke-width="2.5" fill="none" stroke-linecap="round" />
  <line x1="100" y1="138" x2="100" y2="148" stroke="#333" stroke-width="2.5" stroke-linecap="round" />
  
  <path d="M85 165 L100 190 L115 165" fill="#FFFFFF" />
</svg>
